<svg width="520" height="160" viewBox="0 0 520 160" fill="none" xmlns="http://www.w3.org/2000/svg">
  <g fill="#000000">
    <rect x="18" y="54" width="10" height="10" rx="3"/>
    <rect x="30" y="42" width="10" height="10" rx="3"/>
    <rect x="42" y="30" width="10" height="10" rx="3"/>
    <rect x="54" y="30" width="10" height="10" rx="3"/>
    <rect x="66" y="42" width="10" height="10" rx="3"/>
    <rect x="78" y="54" width="10" height="10" rx="3"/>
    <rect x="78" y="66" width="10" height="10" rx="3"/>
    <rect x="66" y="78" width="10" height="10" rx="3"/>
    <rect x="54" y="78" width="10" height="10" rx="3"/>
    <rect x="42" y="66" width="10" height="10" rx="3"/>
    <rect x="54" y="54" width="10" height="10" rx="3"/>

    <rect x="86" y="54" width="10" height="10" rx="3"/>
    <rect x="98" y="42" width="10" height="10" rx="3"/>
    <rect x="110" y="30" width="10" height="10" rx="3"/>
    <rect x="122" y="30" width="10" height="10" rx="3"/>
    <rect x="134" y="42" width="10" height="10" rx="3"/>
    <rect x="146" y="54" width="10" height="10" rx="3"/>
    <rect x="146" y="66" width="10" height="10" rx="3"/>
    <rect x="134" y="78" width="10" height="10" rx="3"/>
    <rect x="122" y="78" width="10" height="10" rx="3"/>
    <rect x="110" y="66" width="10" height="10" rx="3"/>
    <rect x="98" y="54" width="10" height="10" rx="3"/>
  </g>

  <g fill="#000000">
    <text x="190" y="72" font-family="Inter, Helvetica, 'SF Pro Text', Arial, sans-serif" font-size="52" font-weight="600">DevOps</text>
    <text x="290" y="106" text-anchor="middle" font-family="Inter, Helvetica, 'SF Pro Text', Arial, sans-serif" font-size="20" font-weight="600" letter-spacing="8">HUB</text>
  </g>
</svg>
