<svg width="430" height="120" viewBox="40 50 380 110" xmlns="http://www.w3.org/2000/svg">
<g fill="black">
<rect x="60" y="60" width="14" height="14" rx="2" ry="2"></rect>
<rect x="78" y="60" width="14" height="14" rx="2" ry="2"></rect>
<rect x="42" y="78" width="14" height="14" rx="2" ry="2"></rect>
<rect x="42" y="96" width="14" height="14" rx="2" ry="2"></rect>
<rect x="42" y="114" width="14" height="14" rx="2" ry="2"></rect>
<rect x="96" y="78" width="14" height="14" rx="2" ry="2"></rect>
<rect x="114" y="96" width="14" height="14" rx="2" ry="2"></rect>
<rect x="96" y="114" width="14" height="14" rx="2" ry="2"></rect>
<rect x="60" y="132" width="14" height="14" rx="2" ry="2"></rect>
<rect x="78" y="132" width="14" height="14" rx="2" ry="2"></rect>
<rect x="150" y="60" width="14" height="14" rx="2" ry="2"></rect>
<rect x="168" y="60" width="14" height="14" rx="2" ry="2"></rect>
<rect x="186" y="78" width="14" height="14" rx="2" ry="2"></rect>
<rect x="186" y="96" width="14" height="14" rx="2" ry="2"></rect>
<rect x="186" y="114" width="14" height="14" rx="2" ry="2"></rect>
<rect x="132" y="78" width="14" height="14" rx="2" ry="2"></rect>
<rect x="114" y="96" width="14" height="14" rx="2" ry="2"></rect>
<rect x="132" y="114" width="14" height="14" rx="2" ry="2"></rect>
<rect x="150" y="132" width="14" height="14" rx="2" ry="2"></rect>
<rect x="168" y="132" width="14" height="14" rx="2" ry="2"></rect>
</g>
<text x="222" y="110" font-family="Arial, Helvetica, sans-serif" font-size="52" fill="black">
DevOps
</text>
<text x="222" y="145" font-family="Arial, Helvetica, sans-serif" font-size="26" letter-spacing="6" fill="black">
HUB
</text>
</svg>
